# xmcd
#
# Track frame offsets: 
#        150
#        24505
#        46097
#        65185
#        78752
#        99052
#        109880
#        128530
#        150542
#        168332
#        184095
#        201707
#        220740
#        238645
#        252182
#
# Disc length: 3521 seconds
#
# Revision: 3
# Processed by: cddbd v1.5.2PL0 Copyright (c) Steve Scherf et al.
# Submitted via: ExactAudioCopyFreeDBPlugin 1.0
#
DISCID=c10dbf0f
DTITLE=Various Artist - Blues, Mistletoe, and Santa's Little Helper
DYEAR=1995
DGENRE=Holiday
TTITLE0=Earl King - Santa, Don't Let Me Down
TTITLE1=Grady Gaines and the Texas Upsetters - Grady And Santa is Comi
TTITLE1=ng to Town
TTITLE2=Rod Piazza and The Mighty Flyers - No More Pretty Presents
TTITLE3=Marc Wilson and Mark "Kaz" Kazanoff - Good King Wenceslaus
TTITLE4=Anson Funderburgh and the Rockets - Sam's Christmas Blues (ft 
TTITLE4=Sam Myers)
TTITLE5=Rick Holmstrom - Sleigh Ride
TTITLE6=Bobby Parker - Sandy Claw Stole My Woman
TTITLE7=Lynn August - Christmas By the Bar-B-Que
TTITLE8=Mike Morgan and the Crawl - Christmas in Paradise
TTITLE9=Anson Funderburgh and the Rockets - Lonesome Christmas (ft Sam
TTITLE9=Myers)
TTITLE10=Mark "Kaz" Kazanoff and the Well-Hung Ornaments - Blue Christ
TTITLE10=mas
TTITLE11=Big Joe and the Dynaflows - Joe's Christmas Salutations
TTITLE12=Anson Funderburgh and the Rockets - Young Girls Drive Me Wild
TTITLE12=(At Christmas) (ft Sam Myers)
TTITLE13=Robert Ward - Wouldn't It Be a Merry Christmas?
TTITLE14=Bill Kirchen - Santa! Don't Pass Me By
EXTD=
EXTT0=
EXTT1=
EXTT2=
EXTT3=
EXTT4=
EXTT5=
EXTT6=
EXTT7=
EXTT8=
EXTT9=
EXTT10=
EXTT11=
EXTT12=
EXTT13=
EXTT14=
PLAYORDER=
